<svg xmlns="http://www.w3.org/2000/svg" viewBox="0 0 100 100" width="100" height="100"
     fill="currentColor" fill-rule="evenodd" stroke="none" color="#262320">
  <title>강아지</title>
  <path d="M 43.09 36.77 L 42.30 37.56 L 42.30 39.54 L 43.48 41.12 L 40.33 43.88 L 40.33 45.46 L 41.91 46.25 L 45.06 44.27 L 48.22 45.85 L 49.80 45.46 L 50.20 45.06 L 50.20 43.09 L 47.83 42.30 L 46.64 41.12 L 46.64 40.33 L 47.43 39.54 L 47.43 37.17 L 45.85 36.38 Z M 36.38 30.85 L 34.40 32.03 L 34.01 34.80 L 34.40 35.59 L 37.56 36.77 L 39.54 35.59 L 39.93 32.43 L 37.56 30.85 Z M 51.78 30.45 L 49.41 32.03 L 49.41 34.80 L 51.78 36.38 L 52.96 36.38 L 54.94 35.19 L 55.33 32.43 L 54.54 31.24 L 52.96 30.45 Z M 73.10 10.71 L 69.55 9.13 L 63.62 9.13 L 58.88 11.11 L 56.52 13.08 L 52.96 11.11 L 49.01 10.71 L 44.67 11.90 L 43.09 13.08 L 41.12 12.29 L 37.17 12.29 L 34.40 13.48 L 32.82 11.50 L 29.67 9.92 L 28.09 9.53 L 21.77 9.53 L 17.42 11.50 L 14.27 15.45 L 13.08 19.00 L 13.48 24.93 L 11.11 30.06 L 11.11 37.17 L 12.69 41.12 L 15.06 43.48 L 17.82 44.67 L 19.79 44.67 L 20.19 45.06 L 20.19 46.64 L 20.98 48.62 L 20.58 54.15 L 21.37 57.30 L 24.14 60.86 L 23.74 61.65 L 23.74 65.60 L 23.35 65.99 L 22.56 81.39 L 23.74 84.94 L 26.51 87.71 L 30.45 89.29 L 35.19 89.68 L 38.35 88.89 L 42.70 86.52 L 44.67 88.50 L 49.41 90.47 L 55.33 90.47 L 60.07 88.50 L 62.44 86.52 L 64.02 83.76 L 64.81 80.21 L 64.81 76.65 L 65.20 76.26 L 66.39 76.65 L 66.78 84.94 L 67.57 86.52 L 70.73 89.29 L 76.26 90.47 L 79.42 90.08 L 83.36 88.50 L 86.13 86.13 L 88.50 80.21 L 88.50 69.15 L 88.10 68.76 L 88.50 61.25 L 87.31 58.09 L 88.50 55.73 L 88.50 52.17 L 86.92 48.22 L 84.94 46.25 L 80.60 44.67 L 78.23 45.06 L 75.86 43.09 L 77.84 41.12 L 79.02 38.75 L 79.81 33.22 L 78.63 27.69 L 77.05 25.32 L 77.84 22.95 L 77.84 17.03 L 76.65 14.27 Z M 70.73 13.48 L 73.10 15.85 L 74.28 18.21 L 74.28 22.16 L 73.10 24.53 L 73.10 26.11 L 75.47 29.67 L 75.47 30.85 L 76.26 32.43 L 76.26 34.40 L 74.68 39.14 L 72.31 41.12 L 70.73 40.72 L 67.97 37.96 L 65.99 38.75 L 65.99 40.33 L 67.97 43.09 L 67.97 46.64 L 66.39 49.80 L 66.39 51.38 L 68.36 52.17 L 69.94 50.99 L 71.91 45.46 L 72.70 45.46 L 74.68 46.64 L 75.47 48.22 L 77.44 49.01 L 79.02 48.22 L 81.00 48.22 L 83.76 50.20 L 84.94 52.96 L 84.55 56.12 L 83.36 57.70 L 83.36 58.88 L 84.94 62.04 L 84.94 65.20 L 84.15 66.78 L 84.94 69.94 L 84.94 79.42 L 83.36 83.36 L 81.79 85.34 L 79.42 86.52 L 75.07 86.92 L 72.31 86.13 L 70.73 84.55 L 69.94 82.97 L 69.94 75.86 L 70.33 75.47 L 69.94 73.10 L 69.15 72.70 L 67.57 73.10 L 63.23 72.70 L 62.04 73.49 L 61.25 75.86 L 61.25 79.81 L 60.46 81.39 L 60.46 82.58 L 57.30 86.13 L 53.36 87.31 L 48.22 86.52 L 46.25 84.94 L 44.67 81.79 L 45.06 77.05 L 45.46 76.65 L 45.46 71.12 L 44.67 69.55 L 43.09 69.15 L 41.91 69.94 L 42.30 73.89 L 41.51 77.05 L 41.51 81.39 L 39.93 83.76 L 37.96 85.34 L 35.19 86.13 L 32.43 86.13 L 28.88 84.94 L 27.30 83.36 L 26.11 80.21 L 27.69 59.28 L 25.32 56.52 L 24.14 53.36 L 24.93 49.01 L 23.74 46.25 L 23.74 43.88 L 24.93 41.12 L 24.93 39.14 L 22.95 38.35 L 21.37 39.54 L 21.37 40.33 L 20.58 41.12 L 18.21 41.12 L 16.24 39.54 L 14.66 35.98 L 15.06 29.67 L 16.24 27.30 L 17.42 26.11 L 17.42 23.74 L 16.64 21.77 L 17.03 18.21 L 20.19 13.87 L 24.53 12.69 L 29.27 13.48 L 31.64 15.85 L 32.03 17.03 L 33.22 17.82 L 34.40 17.82 L 36.38 16.24 L 38.75 15.45 L 41.12 15.85 L 43.48 17.03 L 46.25 15.06 L 49.01 14.27 L 52.57 14.66 L 54.94 16.24 L 54.94 17.42 L 56.91 17.82 L 60.46 14.27 L 63.62 12.69 L 65.20 12.69 L 65.60 12.29 L 65.99 12.69 L 69.15 12.69 Z"/>
</svg>
