<svg xmlns="http://www.w3.org/2000/svg" viewBox="0 0 634 686" width="634" height="686" fill="#262320" fill-rule="evenodd" role="img" aria-label="오하리상점 OHARI"><title>오하리상점 OHARI</title><g transform="translate(-32.84,-175.32) scale(7.0157)"><path d="M 14.97 52.01 L 14.16 53.08 L 14.16 54.68 L 14.70 55.48 L 15.77 55.75 L 16.30 56.28 L 16.57 58.16 L 17.91 58.69 L 20.31 58.42 L 21.12 57.35 L 21.12 56.02 L 22.45 55.48 L 22.99 54.41 L 22.72 52.81 L 21.92 52.01 L 20.85 51.74 L 19.51 52.27 L 18.98 53.34 L 19.24 54.95 L 18.98 55.22 L 17.91 55.22 L 17.64 54.95 L 17.91 54.68 L 17.91 52.81 L 17.64 52.27 L 16.57 51.74 Z M 68.99 47.19 L 67.92 48.53 L 67.92 52.01 L 68.99 54.15 L 69.79 54.68 L 71.66 55.22 L 74.60 55.22 L 74.87 55.48 L 77.28 54.95 L 78.08 54.15 L 78.62 53.08 L 78.62 50.94 L 77.55 49.06 L 77.01 47.19 L 75.94 46.12 L 73.80 45.59 L 72.47 46.12 L 71.66 46.92 L 70.33 46.66 Z M 57.22 43.72 L 54.01 45.32 L 52.41 47.19 L 51.34 49.87 L 51.34 52.54 L 52.14 53.61 L 54.01 54.41 L 57.76 54.41 L 59.36 54.95 L 61.23 54.41 L 62.57 53.61 L 63.37 52.01 L 63.37 49.33 L 62.57 47.73 L 62.57 46.92 L 61.77 45.32 L 60.97 44.52 L 59.09 43.72 Z M 42.24 39.44 L 40.37 39.97 L 39.03 41.04 L 38.23 42.65 L 37.43 43.45 L 36.36 46.39 L 36.36 48.53 L 37.16 50.13 L 37.97 50.67 L 39.84 50.94 L 40.91 51.47 L 43.05 51.47 L 45.19 50.67 L 46.26 49.60 L 48.66 45.05 L 48.66 42.91 L 48.13 41.84 L 46.52 41.04 L 44.65 41.04 L 43.85 39.97 Z M 46.52 34.09 L 46.52 35.96 L 47.06 37.03 L 48.13 37.83 L 49.47 38.10 L 51.07 38.90 L 53.74 38.90 L 54.01 38.63 L 56.42 38.37 L 57.49 37.56 L 58.02 36.23 L 57.76 34.62 L 56.15 33.02 L 55.62 31.41 L 54.81 30.61 L 53.48 30.08 L 52.14 30.08 L 50.53 30.61 L 48.93 31.95 L 47.59 32.48 Z M 8.01 49.06 L 6.94 53.34 L 6.94 58.16 L 8.28 61.10 L 10.15 62.97 L 13.36 64.58 L 16.84 65.65 L 20.58 65.91 L 20.85 66.45 L 20.31 67.52 L 20.31 70.99 L 20.85 72.06 L 22.45 73.40 L 25.13 74.20 L 28.07 74.20 L 31.28 73.13 L 32.88 71.80 L 37.43 73.40 L 40.64 73.40 L 44.12 72.06 L 45.45 70.73 L 46.52 68.59 L 46.52 65.91 L 46.79 65.65 L 48.66 65.65 L 50.27 65.11 L 52.94 65.11 L 55.35 65.91 L 57.22 65.91 L 57.76 66.45 L 57.49 67.52 L 57.49 70.99 L 58.56 73.13 L 60.16 74.20 L 62.03 74.74 L 64.71 74.74 L 66.58 74.20 L 68.72 72.87 L 69.52 73.67 L 71.93 74.47 L 77.28 74.74 L 79.95 73.94 L 82.09 71.80 L 82.90 69.92 L 82.90 66.18 L 82.36 64.58 L 84.23 63.51 L 85.57 63.51 L 90.65 61.90 L 91.99 60.83 L 92.79 58.96 L 92.79 57.89 L 91.72 55.75 L 90.38 54.95 L 87.17 54.41 L 86.91 54.15 L 86.64 52.54 L 85.30 49.87 L 83.70 47.99 L 82.09 41.58 L 80.22 37.83 L 77.81 34.62 L 74.60 31.41 L 70.06 28.20 L 67.65 27.13 L 64.44 26.33 L 60.70 26.33 L 59.63 25.80 L 58.56 25.80 L 55.62 24.99 L 50.80 24.99 L 50.53 25.26 L 49.20 25.26 L 46.79 26.33 L 43.58 27.13 L 38.23 30.34 L 36.36 32.22 L 33.42 35.96 L 31.28 40.51 L 31.01 42.11 L 30.48 43.18 L 30.48 44.25 L 29.14 45.32 L 27.53 47.99 L 25.93 45.85 L 22.72 43.72 L 18.98 42.65 L 16.30 42.65 L 13.09 43.45 L 11.22 44.52 L 8.81 47.46 Z M 67.12 65.38 L 67.38 65.65 L 67.12 65.91 L 67.12 69.12 L 65.78 70.46 L 64.17 71.26 L 62.84 71.26 L 62.03 70.99 L 61.23 70.19 L 61.23 67.78 L 61.77 66.45 L 62.30 65.91 L 63.37 65.91 L 64.71 65.38 Z M 78.62 65.38 L 79.15 66.45 L 79.42 68.32 L 79.15 69.39 L 77.55 70.99 L 76.48 71.26 L 73.00 70.99 L 71.93 70.73 L 70.59 69.39 L 70.59 66.98 L 71.13 65.65 L 73.27 65.65 L 75.67 64.84 L 77.01 64.84 Z M 35.02 64.04 L 35.29 63.77 L 39.57 63.77 L 42.51 64.84 L 43.05 66.45 L 42.78 68.05 L 41.71 69.12 L 39.57 69.92 L 36.90 69.66 L 35.83 69.12 L 34.76 67.78 Z M 86.91 58.96 L 87.17 58.16 L 88.51 58.16 L 88.78 58.42 L 87.71 59.23 Z M 14.97 46.66 L 16.03 46.39 L 19.24 46.39 L 20.85 46.92 L 22.45 47.99 L 26.73 52.81 L 26.47 55.48 L 26.20 55.75 L 26.20 57.62 L 26.73 59.49 L 28.34 61.63 L 31.55 63.24 L 31.28 66.18 L 31.01 66.45 L 31.28 67.78 L 29.41 69.92 L 28.34 70.46 L 24.86 70.46 L 23.79 69.39 L 24.33 67.25 L 25.40 65.91 L 26.73 65.65 L 27.27 64.58 L 27.27 63.51 L 26.73 62.70 L 25.93 62.44 L 20.58 62.44 L 20.31 62.17 L 18.17 62.17 L 17.91 61.90 L 15.77 61.63 L 13.09 60.30 L 10.95 58.16 L 10.69 57.35 L 10.69 53.61 L 10.95 53.34 L 11.22 51.20 L 12.56 48.80 Z M 30.21 52.01 L 30.48 51.74 L 30.48 50.40 L 31.28 48.80 L 33.42 46.66 L 33.95 45.59 L 34.49 42.65 L 36.36 38.37 L 40.64 33.28 L 45.45 30.34 L 47.33 30.08 L 50.80 28.74 L 55.62 28.74 L 60.97 30.08 L 64.71 30.08 L 66.58 30.61 L 68.45 31.95 L 67.65 32.22 L 66.31 31.68 L 64.71 32.22 L 63.10 33.55 L 62.57 34.62 L 62.57 37.03 L 63.91 40.51 L 66.05 42.11 L 67.65 42.65 L 69.79 42.11 L 71.13 40.24 L 71.40 37.83 L 68.99 32.75 L 69.26 32.48 L 71.13 33.55 L 75.94 38.37 L 78.35 42.38 L 79.69 46.66 L 80.22 49.60 L 82.90 53.34 L 83.43 55.48 L 83.43 57.89 L 82.63 59.76 L 81.83 60.56 L 80.49 61.37 L 79.42 61.37 L 79.15 61.63 L 75.14 61.37 L 74.87 61.63 L 71.93 61.90 L 71.66 62.17 L 64.98 61.63 L 62.30 62.44 L 56.69 62.44 L 52.67 61.37 L 50.80 61.37 L 48.93 61.90 L 45.19 61.90 L 44.92 61.63 L 42.78 61.37 L 41.98 60.83 L 39.30 60.03 L 34.49 60.30 L 31.81 59.49 L 29.94 57.62 Z"/></g><g transform="translate(-12,420.80)"><path d="M479.89,269.50C472.81,265.65 472.15,261.93 468.04,202.00C465.67,167.54 464.28,153.38 463.05,151.08C462.17,149.45 461.95,146.70 462.35,142.58C462.98,136.11 460.57,102.38 458.96,95.24C457.57,89.07 457.78,78.45 459.36,74.72C460.11,72.95 461.72,70.61 462.94,69.52C465.75,67.02 472.11,66.89 474.75,69.28C476.58,70.93 477.06,70.81 485.58,66.62C496.39,61.31 502.12,59.84 512.12,59.84C524.19,59.84 531.54,62.72 537.46,69.77C540.84,73.79 544.00,81.86 544.00,86.46C544.00,91.19 539.63,104.45 536.08,110.50C532.85,116.02 522.14,128.30 514.75,134.97C512.14,137.33 510.00,139.62 510.00,140.07C510.00,140.51 514.16,143.45 519.25,146.59C532.74,154.91 538.97,159.18 553.61,170.16C572.60,184.40 574.00,186.05 574.00,194.17C574.00,197.41 573.34,198.86 570.66,201.54C563.84,208.36 558.65,207.10 542.27,194.68C526.21,182.50 512.48,172.79 503.50,167.28C499.10,164.58 494.51,161.74 493.30,160.97C492.08,160.20 490.76,159.90 490.36,160.31C489.69,160.98 490.78,172.98 492.97,189.00C493.46,192.57 494.36,200.90 494.98,207.50C495.59,214.10 496.52,223.55 497.04,228.50C498.91,246.44 499.26,257.41 498.08,261.72C495.95,269.57 487.03,273.38 479.89,269.50ZM72.49,251.64C54.52,245.81 41.66,231.93 31.62,207.50C28.47,199.83 28.25,199.08 24.70,184.50C20.68,167.98 19.50,156.15 19.56,133.38L19.62,112.25L16.43,110.53C9.09,106.58 4.95,95.02 7.48,85.51C10.25,75.10 14.28,66.73 22.70,53.91C29.63,43.35 35.58,36.90 40.58,34.53C47.65,31.17 56.04,31.58 61.00,35.52C61.83,36.18 65.68,36.78 69.56,36.86C106.30,37.64 134.60,75.34 143.59,135.50C145.87,150.79 145.12,178.74 142.09,191.50C136.78,213.83 131.98,224.11 120.79,237.18C108.08,252.02 90.19,257.38 72.49,251.64ZM285.00,229.75C277.69,226.03 276.77,222.99 273.16,190.50C271.45,175.10 269.76,159.46 269.41,155.75C268.90,150.43 268.42,149.00 267.13,149.01C266.24,149.02 258.47,149.90 249.89,150.97C241.30,152.04 229.37,153.22 223.39,153.59C217.40,153.96 211.97,154.69 211.32,155.20C210.67,155.71 210.34,157.55 210.58,159.31C213.29,179.27 216.15,204.71 216.23,209.50C216.34,216.65 214.30,221.21 209.70,224.10C203.91,227.73 195.71,225.20 192.38,218.76C190.01,214.18 188.08,205.41 188.03,199.00C188.01,195.97 187.57,189.68 187.05,185.00C185.52,171.37 183.12,139.33 180.44,97.00C180.21,93.42 179.50,85.44 178.85,79.26C177.53,66.61 178.30,61.95 182.34,58.15C187.95,52.88 196.98,55.37 198.87,62.70C199.40,64.79 200.32,71.00 200.90,76.50C201.48,82.00 202.81,93.03 203.87,101.00C204.93,108.97 206.12,118.99 206.52,123.26C206.91,127.53 207.56,131.23 207.96,131.47C208.35,131.72 216.96,130.35 227.07,128.43C237.19,126.51 249.38,124.67 254.16,124.33C258.94,123.99 263.30,123.43 263.86,123.09C264.52,122.68 263.64,110.80 261.33,88.73C259.38,70.17 258.07,53.87 258.41,52.49C258.76,51.11 260.35,48.53 261.94,46.74C264.40,43.99 265.52,43.50 269.35,43.50C272.99,43.50 274.47,44.07 276.96,46.46C280.19,49.56 281.16,52.27 282.89,63.00C283.46,66.58 284.84,75.12 285.95,82.00C288.67,98.82 293.12,128.55 293.66,133.50C295.65,151.91 298.69,175.90 301.01,191.50C304.63,215.85 304.66,217.70 301.48,224.40C300.37,226.74 298.40,228.60 295.59,229.96C290.36,232.49 290.39,232.49 285.00,229.75ZM94.32,227.62C101.21,224.57 107.61,216.87 112.04,206.30C115.52,197.96 116.19,195.67 118.51,184.00C121.24,170.24 119.88,136.37 116.00,121.75C112.22,107.53 107.68,95.13 103.65,88.00C102.56,86.08 101.07,83.33 100.33,81.89C97.52,76.41 87.09,66.28 81.28,63.38C76.20,60.85 74.42,60.50 66.50,60.50L57.50,60.50L57.50,64.38C57.50,67.21 56.96,68.56 55.50,69.38C47.35,73.97 45.54,76.81 41.79,91.00C39.73,98.76 39.54,101.76 39.52,125.50C39.51,142.13 39.93,153.48 40.70,157.00C41.37,160.03 42.43,165.43 43.07,169.00C45.90,184.91 52.12,202.15 58.58,212.00C63.85,220.03 66.97,223.06 74.01,226.94C80.92,230.75 86.80,230.95 94.32,227.62ZM335.31,195.53C333.32,194.67 331.34,192.63 330.06,190.11C327.49,185.09 327.41,177.32 329.48,138.90C332.45,83.76 337.01,51.92 345.60,26.27C348.79,16.77 349.54,15.26 352.87,11.67C363.95,-0.27 379.60,7.41 390.22,30.00C395.10,40.36 404.42,62.13 406.93,69.00C407.63,70.92 408.56,73.40 409.01,74.50C409.45,75.60 411.29,80.33 413.09,85.00C414.89,89.67 416.64,93.72 416.97,94.00C420.38,96.84 422.00,100.71 422.00,106.00C422.00,109.59 423.08,115.06 424.87,120.62C426.45,125.50 430.06,136.93 432.88,146.00C442.63,177.35 442.70,177.69 441.08,183.19C439.63,188.09 437.69,190.59 433.80,192.60C423.43,197.97 415.22,188.80 411.12,167.29C410.47,163.87 408.60,156.89 406.96,151.79C405.33,146.68 403.10,139.57 402.01,136.00C397.38,120.87 396.73,118.95 396.11,118.57C395.31,118.07 364.08,120.77 358.50,121.81L354.50,122.56L353.83,151.03C353.47,166.69 352.93,181.62 352.64,184.21C351.97,190.08 349.55,193.87 345.33,195.64C341.29,197.32 339.38,197.30 335.31,195.53ZM603.36,162.08C601.63,161.02 599.92,159.68 599.55,159.08C599.18,158.49 596.19,158.00 592.90,158.00C586.34,158.00 579.82,155.40 578.03,152.06C576.71,149.59 576.71,144.42 578.02,141.96C579.50,139.20 582.63,137.79 590.00,136.57L596.50,135.50L596.44,127.00C596.41,122.33 595.62,107.03 594.70,93.00C593.77,78.97 593.01,60.41 593.01,51.75L593.00,36.00L582.69,36.00C572.69,36.00 572.29,35.91 569.69,33.20C565.29,28.61 566.49,21.92 572.34,18.45C574.08,17.42 578.20,16.25 581.50,15.86C584.80,15.46 591.77,14.47 597.00,13.65C602.23,12.84 612.40,11.60 619.60,10.90C632.10,9.70 632.86,9.74 636.10,11.63C640.26,14.05 644.00,19.40 644.00,22.90C643.99,26.81 640.39,31.94 636.51,33.56C634.33,34.47 629.57,35.00 623.59,35.00C618.38,35.00 613.89,35.37 613.61,35.82C613.33,36.28 613.51,39.54 614.01,43.07C614.50,46.61 615.83,60.98 616.96,75.00C618.09,89.03 619.46,104.63 620.00,109.67C620.55,114.71 621.00,121.78 621.00,125.36C621.00,128.95 621.34,132.06 621.75,132.29C622.16,132.51 626.37,132.24 631.10,131.70C641.55,130.50 644.30,131.10 648.78,135.58C652.04,138.84 652.22,139.36 651.75,144.21C651.34,148.51 650.67,149.91 647.76,152.58C644.00,156.02 642.09,156.50 627.78,157.54C620.16,158.09 618.59,158.54 615.39,161.09C611.13,164.48 607.75,164.75 603.36,162.08ZM492.29,121.13C498.77,116.30 509.83,104.85 513.25,99.41C514.67,97.16 516.39,93.44 517.07,91.15C518.24,87.26 518.16,86.80 515.99,84.49C512.06,80.30 502.09,81.29 488.98,87.15C483.66,89.52 481.82,90.88 481.35,92.74C480.83,94.80 484.19,119.67 485.53,123.75C486.12,125.56 486.55,125.40 492.29,121.13ZM368.50,97.00C375.10,95.90 382.19,95.00 384.25,95.00C388.31,95.00 388.98,93.54 387.08,88.80C386.58,87.53 384.28,81.55 381.97,75.50C379.67,69.45 377.21,63.15 376.51,61.50C369.51,44.96 367.29,40.70 366.05,41.47C365.65,41.72 364.54,44.98 363.60,48.71C360.50,60.94 359.96,63.76 357.01,83.08C356.10,89.03 355.62,99.00 356.25,99.00C356.39,99.00 361.90,98.10 368.50,97.00Z"/></g></svg>