<svg xmlns="http://www.w3.org/2000/svg" viewBox="0 0 100 100" width="100" height="100"
     fill="none" stroke="currentColor" stroke-linecap="round" stroke-linejoin="round" color="#262320">
  <title>꽃</title>
  <path d="M 49.67 10.37 L 50.18 10.71 L 50.72 12.12 L 51.22 14.23 L 51.75 16.75 L 52.37 19.40 L 53.15 21.93 L 54.16 24.08 L 55.49 25.54 L 57.28 26.24 L 59.59 26.45 L 62.20 26.34 L 64.89 26.04 L 67.44 25.71 L 69.60 25.47 L 71.15 25.48 L 71.90 25.90 L 71.58 26.70 L 70.35 27.68 L 68.49 28.82 L 66.27 30.10 L 63.96 31.49 L 61.85 32.96 L 60.21 34.47 L 59.30 35.96 L 59.17 37.74 L 59.65 39.93 L 60.54 42.36 L 61.64 44.82 L 62.74 47.15 L 63.63 49.19 L 64.10 50.89 L 63.48 52.03 L 62.44 51.89 L 61.11 50.98 L 59.45 49.54 L 57.57 47.82 L 55.57 46.05 L 53.56 44.50 L 51.70 43.41 L 50.12 42.98 L 48.43 43.37 L 46.50 44.47 L 44.47 46.04 L 42.45 47.83 L 40.56 49.58 L 38.87 51.05 L 37.35 52.01 L 36.01 51.71 L 35.84 50.66 L 36.31 49.11 L 37.19 47.10 L 38.26 44.79 L 39.34 42.34 L 40.21 39.95 L 40.68 37.83 L 40.60 36.16 L 39.71 34.65 L 38.06 33.14 L 35.94 31.69 L 33.62 30.31 L 31.37 29.05 L 29.46 27.91 L 28.11 26.80 L 27.94 25.58 L 28.83 25.10 L 30.43 25.07 L 32.61 25.28 L 35.15 25.58 L 37.82 25.84 L 40.38 25.92 L 42.56 25.70 L 44.15 25.08 L 45.30 23.75 L 46.22 21.70 L 46.94 19.23 L 47.52 16.59 L 48.01 14.07 L 48.50 11.89 L 49.38 10.55" stroke-width="6.28"/>
  <circle cx="50.0" cy="33.0" r="5.0" fill="currentColor" stroke="none"/>
  <path d="M 50.28 51.00 L 50.29 51.99 L 50.32 55.02 L 50.39 59.31 L 50.48 64.44 L 50.58 70.00 L 50.69 75.55 L 50.78 80.69 L 50.92 84.98 L 50.95 85.97" stroke-width="5.95"/>
  <path d="M 47.42 70.21 L 47.33 70.42 L 47.23 70.62 L 47.11 70.82 L 46.98 71.00 L 46.83 71.17 L 46.67 71.33 L 46.50 71.48 L 46.33 71.62 L 46.14 71.74 L 45.94 71.85 L 45.74 71.96 L 45.53 72.04 L 45.32 72.12 L 45.10 72.19 L 44.87 72.25 L 44.64 72.30 L 44.41 72.34 L 44.17 72.37 L 43.93 72.39 L 43.68 72.40 L 43.43 72.40 L 43.18 72.40 L 42.92 72.39 L 42.66 72.37 L 42.40 72.35 L 42.13 72.32 L 41.86 72.28 L 41.59 72.24 L 41.31 72.19 L 41.03 72.13 L 40.75 72.07 L 40.47 72.01 L 40.19 71.94 L 39.90 71.87 L 39.61 71.79 L 39.32 71.70 L 39.03 71.62 L 38.73 71.53 L 38.44 71.44 L 38.14 71.34 L 37.85 71.24 L 37.55 71.14 L 37.25 71.03 L 36.95 70.93 L 36.65 70.82 L 36.35 70.70 L 36.05 70.59 L 35.75 70.47 L 35.45 70.35 L 35.15 70.23 L 34.85 70.11 L 34.55 69.98 L 34.25 69.86 L 33.96 69.73 L 33.66 69.60 L 33.37 69.47 L 33.08 69.34 L 32.80 69.20 L 32.51 69.06 L 32.23 68.92 L 31.95 68.78 L 31.67 68.64 L 31.40 68.50 L 31.13 68.36 L 30.86 68.21 L 30.60 68.07 L 30.35 67.92 L 30.10 67.77 L 29.85 67.61 L 29.61 67.46 L 29.37 67.31 L 29.15 67.15 L 28.93 67.00 L 28.71 66.84 L 28.50 66.68 L 28.30 66.52 L 28.10 66.36 L 27.92 66.19 L 27.74 66.03 L 27.57 65.87 L 27.41 65.70 L 27.26 65.54 L 27.12 65.37 L 26.99 65.21 L 26.86 65.04 L 26.75 64.88 L 26.64 64.72 L 26.55 64.56 L 26.47 64.40 L 26.40 64.24 L 26.33 64.09 L 26.28 63.94 L 26.24 63.79 L 26.21 63.65 L 26.18 63.51 L 26.17 63.38 L 26.17 63.25 L 26.17 63.13 L 26.19 63.01 L 26.21 62.90 L 26.23 62.79 L 26.27 62.69 L 26.31 62.59 L 26.36 62.51 L 26.41 62.42 L 26.47 62.34 L 26.53 62.26 L 26.60 62.19 L 26.68 62.11 L 26.76 62.04 L 26.85 61.98 L 26.94 61.91 L 27.04 61.84 L 27.15 61.78 L 27.27 61.72 L 27.39 61.65 L 27.53 61.59 L 27.67 61.53 L 27.81 61.47 L 27.96 61.42 L 28.13 61.36 L 28.30 61.31 L 28.48 61.26 L 28.67 61.21 L 28.86 61.16 L 29.07 61.11 L 29.28 61.07 L 29.49 61.02 L 29.71 60.98 L 29.95 60.94 L 30.19 60.91 L 30.44 60.87 L 30.69 60.84 L 30.95 60.81 L 31.21 60.79 L 31.48 60.77 L 31.76 60.75 L 32.04 60.73 L 32.33 60.72 L 32.63 60.71 L 32.93 60.70 L 33.23 60.70 L 33.54 60.70 L 33.85 60.70 L 34.16 60.71 L 34.48 60.72 L 34.80 60.74 L 35.13 60.76 L 35.46 60.79 L 35.79 60.82 L 36.12 60.85 L 36.45 60.89 L 36.78 60.94 L 37.12 60.99 L 37.45 61.05 L 37.79 61.11 L 38.12 61.18 L 38.46 61.25 L 38.79 61.33 L 39.12 61.42 L 39.44 61.51 L 39.77 61.60 L 40.09 61.70 L 40.41 61.81 L 40.73 61.93 L 41.04 62.05 L 41.35 62.17 L 41.65 62.30 L 41.95 62.44 L 42.24 62.58 L 42.53 62.73 L 42.81 62.88 L 43.09 63.04 L 43.36 63.20 L 43.62 63.37 L 43.87 63.54 L 44.12 63.71 L 44.35 63.90 L 44.58 64.08 L 44.81 64.27 L 45.02 64.46 L 45.23 64.66 L 45.42 64.86 L 45.61 65.06 L 45.78 65.26 L 45.95 65.47 L 46.11 65.68 L 46.25 65.89 L 46.39 66.10 L 46.52 66.32 L 46.63 66.53 L 46.74 66.75 L 46.83 66.96 L 46.92 67.18 L 46.99 67.39 L 47.05 67.61 L 47.10 67.82 L 47.14 68.04 L 47.17 68.25 L 47.18 68.46 L 47.19 68.66 L 47.18 68.87 L 47.16 69.07 L 47.13 69.26 L 47.09 69.45 L 47.04 69.64 L 46.38 69.63" stroke-width="4.83"/>
  <path d="M 74.69 70.44 L 74.74 70.53 L 74.78 70.63 L 74.82 70.74 L 74.84 70.85 L 74.86 70.97 L 74.87 71.09 L 74.87 71.22 L 74.86 71.35 L 74.85 71.48 L 74.82 71.62 L 74.78 71.77 L 74.73 71.92 L 74.67 72.07 L 74.61 72.22 L 74.53 72.37 L 74.44 72.53 L 74.34 72.69 L 74.23 72.84 L 74.12 73.00 L 73.99 73.17 L 73.85 73.33 L 73.70 73.49 L 73.55 73.65 L 73.39 73.81 L 73.22 73.97 L 73.04 74.13 L 72.85 74.29 L 72.65 74.44 L 72.45 74.60 L 72.24 74.76 L 72.03 74.92 L 71.81 75.07 L 71.58 75.22 L 71.35 75.37 L 71.11 75.52 L 70.86 75.68 L 70.61 75.83 L 70.35 75.97 L 70.09 76.12 L 69.83 76.26 L 69.57 76.41 L 69.30 76.55 L 69.02 76.69 L 68.74 76.84 L 68.46 76.98 L 68.18 77.11 L 67.89 77.25 L 67.61 77.39 L 67.32 77.52 L 67.03 77.65 L 66.73 77.79 L 66.44 77.92 L 66.14 78.05 L 65.84 78.17 L 65.54 78.30 L 65.25 78.42 L 64.95 78.54 L 64.65 78.66 L 64.35 78.78 L 64.05 78.89 L 63.75 79.00 L 63.45 79.11 L 63.15 79.22 L 62.86 79.32 L 62.57 79.42 L 62.27 79.52 L 61.98 79.61 L 61.68 79.70 L 61.39 79.79 L 61.10 79.87 L 60.81 79.94 L 60.53 80.01 L 60.25 80.08 L 59.97 80.14 L 59.69 80.19 L 59.41 80.24 L 59.13 80.29 L 58.86 80.32 L 58.59 80.35 L 58.33 80.38 L 58.07 80.39 L 57.81 80.40 L 57.55 80.40 L 57.30 80.40 L 57.05 80.38 L 56.81 80.35 L 56.57 80.32 L 56.33 80.28 L 56.10 80.23 L 55.88 80.16 L 55.66 80.09 L 55.44 80.00 L 55.23 79.91 L 55.03 79.80 L 54.84 79.68 L 54.65 79.55 L 54.48 79.41 L 54.32 79.25 L 54.16 79.09 L 54.02 78.91 L 53.90 78.73 L 53.79 78.53 L 53.69 78.33 L 53.61 78.12 L 53.55 77.90 L 53.50 77.68 L 53.47 77.46 L 53.46 77.24 L 53.46 77.02 L 53.48 76.80 L 53.51 76.58 L 53.56 76.37 L 53.62 76.16 L 53.69 75.95 L 53.78 75.74 L 53.87 75.54 L 53.97 75.34 L 54.09 75.14 L 54.21 74.95 L 54.34 74.76 L 54.48 74.57 L 54.63 74.38 L 54.79 74.20 L 54.95 74.01 L 55.12 73.83 L 55.30 73.65 L 55.48 73.47 L 55.67 73.29 L 55.87 73.12 L 56.07 72.94 L 56.29 72.77 L 56.50 72.59 L 56.73 72.42 L 56.95 72.24 L 57.19 72.07 L 57.42 71.90 L 57.67 71.73 L 57.92 71.57 L 58.17 71.40 L 58.43 71.23 L 58.70 71.06 L 58.97 70.90 L 59.24 70.74 L 59.52 70.58 L 59.80 70.42 L 60.08 70.26 L 60.37 70.11 L 60.67 69.95 L 60.96 69.80 L 61.27 69.65 L 61.57 69.51 L 61.87 69.37 L 62.18 69.23 L 62.49 69.10 L 62.80 68.97 L 63.12 68.84 L 63.44 68.72 L 63.76 68.60 L 64.08 68.49 L 64.40 68.39 L 64.72 68.29 L 65.04 68.19 L 65.37 68.10 L 65.69 68.02 L 66.01 67.94 L 66.34 67.87 L 66.66 67.80 L 66.98 67.75 L 67.29 67.70 L 67.61 67.66 L 67.93 67.62 L 68.24 67.59 L 68.55 67.57 L 68.86 67.56 L 69.16 67.55 L 69.45 67.56 L 69.75 67.57 L 70.03 67.59 L 70.32 67.61 L 70.60 67.65 L 70.87 67.69 L 71.13 67.74 L 71.39 67.80 L 71.64 67.86 L 71.88 67.93 L 72.11 68.01 L 72.34 68.10 L 72.56 68.19 L 72.76 68.29 L 72.96 68.39 L 73.14 68.50 L 73.32 68.61 L 73.48 68.73 L 73.63 68.85 L 73.77 68.98 L 73.89 69.10 L 74.01 69.23 L 74.11 69.36 L 74.19 69.49 L 74.27 69.61 L 74.33 69.74 L 74.38 69.86 L 74.41 69.98 L 74.44 70.10 L 74.46 70.21 L 74.47 70.31 L 75.28 70.09" stroke-width="4.79"/>
</svg>
